<?xml version="1.0" encoding="UTF-8" standalone="no"?> <svg xmlns="http://www.w3.org/2000/svg" width="30.000000pt" height="30.000000pt" viewBox="0 0 30.000000 30.000000" preserveAspectRatio="xMidYMid meet"> <g transform="translate(0.000000,30.000000) scale(0.100000,-0.100000)" fill="#000000" stroke="none"> <path d="M137 294 c-4 -4 -4 -18 -1 -30 6 -22 3 -24 -28 -24 -51 0 -58 -14 -58 -107 l0 -83 100 0 100 0 0 83 c0 93 -7 107 -57 107 -31 0 -33 3 -31 26 3 26 -11 41 -25 28z m-11 -115 c10 -17 -13 -36 -27 -22 -12 12 -4 33 11 33 5 0 12 -5 16 -11z m80 0 c10 -17 -13 -36 -27 -22 -12 12 -4 33 11 33 5 0 12 -5 16 -11z m2 -91 c3 -16 -5 -18 -57 -18 -44 0 -61 4 -61 13 0 23 13 28 65 25 38 -2 51 -7 53 -20z"></path> <path d="M10 140 c0 -22 5 -40 10 -40 6 0 10 18 10 40 0 22 -4 40 -10 40 -5 0 -10 -18 -10 -40z"></path> <path d="M270 140 c0 -22 5 -40 10 -40 6 0 10 18 10 40 0 22 -4 40 -10 40 -5 0 -10 -18 -10 -40z"></path> </g> </svg> 